{
  "accessors": [
    {
      "bufferView": 2,
      "componentType": 5126,
      "count": 1131,
      "max": [0.6664080023765564, 0.17682400345802307, 1.9310499429702759],
      "min": [-0.6664080023765564, -0.20109200477600098, 0.04067099839448929],
      "type": "VEC3"
    },
    {
      "bufferView": 2,
      "byteOffset": 13572,
      "componentType": 5126,
      "count": 1131,
      "max": [0.9980763792991638, 0.9997044205665588, 0.9936255216598511],
      "min": [-0.9984946250915527, -0.9999964833259583, -1.0],
      "type": "VEC3"
    },
    {
      "bufferView": 1,
      "componentType": 5126,
      "count": 1131,
      "max": [0.9963350296020508, 0.9952920079231262],
      "min": [0.003441999899223447, 0.004594999831169844],
      "type": "VEC2"
    },
    {
      "bufferView": 0,
      "componentType": 5125,
      "count": 3648,
      "type": "SCALAR"
    },
    {
      "bufferView": 2,
      "byteOffset": 27144,
      "componentType": 5126,
      "count": 59,
      "max": [0.3072110116481781, 0.23818600177764893, 1.7566349506378174],
      "min": [-0.3066459894180298, 0.1282760053873062, 1.154013991355896],
      "type": "VEC3"
    },
    {
      "bufferView": 2,
      "byteOffset": 27852,
      "componentType": 5126,
      "count": 59,
      "max": [0.2767537832260132, 0.995358943939209, 0.4136226773262024],
      "min": [-0.29341942071914673, -0.9987574219703674, -0.22595243155956268],
      "type": "VEC3"
    },
    {
      "bufferView": 1,
      "byteOffset": 9048,
      "componentType": 5126,
      "count": 59,
      "max": [0.9682700037956238, 0.9590870141983032],
      "min": [0.027233000844717026, 0.038093000650405884],
      "type": "VEC2"
    },
    {
      "bufferView": 0,
      "byteOffset": 14592,
      "componentType": 5125,
      "count": 204,
      "type": "SCALAR"
    }
  ],
  "asset": {
    "extras": {
      "author": "Tigerar1 (https://sketchfab.com/allanromanreyes)",
      "license": "SKETCHFAB Standard (https://sketchfab.com/licenses)",
      "source": "https://sketchfab.com/3d-models/steven-rogers-captain-america-8b3a3f90e46e40b293287d6ba013e6f3",
      "title": "Steven Rogers Captain America"
    },
    "generator": "Sketchfab-16.8.0",
    "version": "2.0"
  },
  "bufferViews": [
    {
      "buffer": 0,
      "byteLength": 15408,
      "name": "floatBufferViews",
      "target": 34963
    },
    {
      "buffer": 0,
      "byteLength": 9520,
      "byteOffset": 15408,
      "byteStride": 8,
      "name": "floatBufferViews",
      "target": 34962
    },
    {
      "buffer": 0,
      "byteLength": 28560,
      "byteOffset": 24928,
      "byteStride": 12,
      "name": "floatBufferViews",
      "target": 34962
    }
  ],
  "buffers": [
    {
      "byteLength": 53488,
      "uri": "cap.bin"
    }
  ],
  "images": [
    {
      "uri": "textures/MFF_iOS_HER_SRO_AOU_B_baseColor.png"
    },
    {
      "uri": "textures/MFF_iOS_HER_SRO_AOU_W_baseColor.png"
    }
  ],
  "materials": [
    {
      "doubleSided": true,
      "name": "MFF_iOS_HER_SRO_AOU_B",
      "pbrMetallicRoughness": {
        "baseColorTexture": {
          "index": 0
        },
        "metallicFactor": 0.0,
        "roughnessFactor": 0.9921745770996335
      }
    },
    {
      "doubleSided": true,
      "name": "MFF_iOS_HER_SRO_AOU_W",
      "pbrMetallicRoughness": {
        "baseColorTexture": {
          "index": 1
        },
        "metallicFactor": 0.0,
        "roughnessFactor": 0.9843491541992672
      }
    }
  ],
  "meshes": [
    {
      "name": "Object_0",
      "primitives": [
        {
          "attributes": {
            "NORMAL": 1,
            "POSITION": 0,
            "TEXCOORD_0": 2
          },
          "indices": 3,
          "material": 0,
          "mode": 4
        }
      ]
    },
    {
      "name": "Object_1",
      "primitives": [
        {
          "attributes": {
            "NORMAL": 5,
            "POSITION": 4,
            "TEXCOORD_0": 6
          },
          "indices": 7,
          "material": 1,
          "mode": 4
        }
      ]
    }
  ],
  "nodes": [
    {
      "children": [1],
      "matrix": [
        1.0, 0.0, 0.0, 0.0, 0.0, 2.220446049250313e-16, -1.0, 0.0, 0.0, 1.0,
        2.220446049250313e-16, 0.0, 0.0, 0.0, 0.0, 1.0
      ],
      "name": "Sketchfab_model"
    },
    {
      "children": [2, 3],
      "name": "M-FF_iOS_HERO_Steven_Rogers_Captain_America_Age_Of_Ultron.obj.cleaner.materialmerger.gles"
    },
    {
      "mesh": 0,
      "name": "Object_2"
    },
    {
      "mesh": 1,
      "name": "Object_3"
    }
  ],
  "samplers": [
    {
      "magFilter": 9729,
      "minFilter": 9987,
      "wrapS": 10497,
      "wrapT": 10497
    }
  ],
  "scene": 0,
  "scenes": [
    {
      "name": "Sketchfab_Scene",
      "nodes": [0]
    }
  ],
  "textures": [
    {
      "sampler": 0,
      "source": 0
    },
    {
      "sampler": 0,
      "source": 1
    }
  ]
}
