{
  "accessors": [
    {
      "bufferView": 2,
      "componentType": 5126,
      "count": 6819,
      "max": [0.8515610098838806, 0.19272899627685547, 1.915653944015503],
      "min": [-0.8515610098838806, -0.1817229986190796, 0.0007239999831654131],
      "type": "VEC3"
    },
    {
      "bufferView": 2,
      "byteOffset": 81828,
      "componentType": 5126,
      "count": 6819,
      "max": [0.9998225569725037, 0.9999894499778748, 0.9999048113822937],
      "min": [-0.9998225569725037, -0.9999980926513672, -0.9999866485595703],
      "type": "VEC3"
    },
    {
      "bufferView": 1,
      "componentType": 5126,
      "count": 6819,
      "max": [0.9925500154495239, 0.9911800026893616],
      "min": [0.00620400020852685, 0.00786300003528595],
      "type": "VEC2"
    },
    {
      "bufferView": 0,
      "componentType": 5125,
      "count": 31428,
      "type": "SCALAR"
    }
  ],
  "asset": {
    "extras": {
      "author": "Tigerar1 (https://sketchfab.com/allanromanreyes)",
      "license": "SKETCHFAB Standard (https://sketchfab.com/licenses)",
      "source": "https://sketchfab.com/3d-models/t-challa-black-panther-fed5ec3ad22b4b0dbec13238ff7b32ea",
      "title": "T' Challa - Black Panther"
    },
    "generator": "Sketchfab-16.6.0",
    "version": "2.0"
  },
  "bufferViews": [
    {
      "buffer": 0,
      "byteLength": 125712,
      "name": "floatBufferViews",
      "target": 34963
    },
    {
      "buffer": 0,
      "byteLength": 54552,
      "byteOffset": 125712,
      "byteStride": 8,
      "name": "floatBufferViews",
      "target": 34962
    },
    {
      "buffer": 0,
      "byteLength": 163656,
      "byteOffset": 180264,
      "byteStride": 12,
      "name": "floatBufferViews",
      "target": 34962
    }
  ],
  "buffers": [
    {
      "byteLength": 343920,
      "uri": "challa.bin"
    }
  ],
  "images": [
    {
      "uri": "textures/COC_iOS_HER_TCH_CWA_B_baseColor.png"
    }
  ],
  "materials": [
    {
      "doubleSided": true,
      "name": "COC_iOS_HER_TCH_CWA_B",
      "pbrMetallicRoughness": {
        "baseColorTexture": {
          "index": 0
        },
        "metallicFactor": 0.0,
        "roughnessFactor": 0.9921745770996335
      }
    }
  ],
  "meshes": [
    {
      "name": "Object_0",
      "primitives": [
        {
          "attributes": {
            "NORMAL": 1,
            "POSITION": 0,
            "TEXCOORD_0": 2
          },
          "indices": 3,
          "material": 0,
          "mode": 4
        }
      ]
    }
  ],
  "nodes": [
    {
      "children": [1],
      "matrix": [
        1.0, 0.0, 0.0, 0.0, 0.0, 2.220446049250313e-16, -1.0, 0.0, 0.0, 1.0,
        2.220446049250313e-16, 0.0, 0.0, 0.0, 0.0, 1.0
      ],
      "name": "Sketchfab_model"
    },
    {
      "children": [2],
      "name": "M-COC_iOS_HERO_T'Challa_Black_Panther_Civil_War.obj.cleaner.materialmerger.gles"
    },
    {
      "mesh": 0,
      "name": "Object_2"
    }
  ],
  "samplers": [
    {
      "magFilter": 9729,
      "minFilter": 9987,
      "wrapS": 10497,
      "wrapT": 10497
    }
  ],
  "scene": 0,
  "scenes": [
    {
      "name": "Sketchfab_Scene",
      "nodes": [0]
    }
  ],
  "textures": [
    {
      "sampler": 0,
      "source": 0
    }
  ]
}
