{
  "accessors": [
    {
      "bufferView": 2,
      "componentType": 5126,
      "count": 8619,
      "max": [0.838346004486084, 0.3195520043373108, 1.9339590072631836],
      "min": [-0.838346004486084, -0.19102199375629425, -9.999999974752427e-7],
      "type": "VEC3"
    },
    {
      "bufferView": 2,
      "byteOffset": 103428,
      "componentType": 5126,
      "count": 8619,
      "max": [0.9997666478157043, 0.9999988675117493, 0.9999813437461853],
      "min": [-0.9997665882110596, -0.9999986290931702, -1.0],
      "type": "VEC3"
    },
    {
      "bufferView": 1,
      "componentType": 5126,
      "count": 8619,
      "max": [0.9994189739227295, 1.9975969791412354],
      "min": [0.0015310000162571669, 1.0028079748153687],
      "type": "VEC2"
    },
    {
      "bufferView": 0,
      "componentType": 5125,
      "count": 34833,
      "type": "SCALAR"
    }
  ],
  "asset": {
    "extras": {
      "author": "Tigerar1 (https://sketchfab.com/allanromanreyes)",
      "license": "SKETCHFAB Standard (https://sketchfab.com/licenses)",
      "source": "https://sketchfab.com/3d-models/wade-wilson-deadpool-27e717dcd8dd491ab8fc4ed3bb9ece7f",
      "title": "Wade Wilson - Deadpool"
    },
    "generator": "Sketchfab-16.6.0",
    "version": "2.0"
  },
  "bufferViews": [
    {
      "buffer": 0,
      "byteLength": 139332,
      "name": "floatBufferViews",
      "target": 34963
    },
    {
      "buffer": 0,
      "byteLength": 68952,
      "byteOffset": 139332,
      "byteStride": 8,
      "name": "floatBufferViews",
      "target": 34962
    },
    {
      "buffer": 0,
      "byteLength": 206856,
      "byteOffset": 208284,
      "byteStride": 12,
      "name": "floatBufferViews",
      "target": 34962
    }
  ],
  "buffers": [
    {
      "byteLength": 415140,
      "uri": "deadpool.bin"
    }
  ],
  "images": [
    {
      "uri": "textures/COC_iOS_HER_WWI_CLA_B_baseColor.png"
    }
  ],
  "materials": [
    {
      "doubleSided": true,
      "name": "COC_iOS_HER_WWI_CLA_B",
      "pbrMetallicRoughness": {
        "baseColorTexture": {
          "index": 0
        },
        "metallicFactor": 0.0,
        "roughnessFactor": 0.9843491541992672
      }
    }
  ],
  "meshes": [
    {
      "name": "Object_0",
      "primitives": [
        {
          "attributes": {
            "NORMAL": 1,
            "POSITION": 0,
            "TEXCOORD_0": 2
          },
          "indices": 3,
          "material": 0,
          "mode": 4
        }
      ]
    }
  ],
  "nodes": [
    {
      "children": [1],
      "matrix": [
        1.0, 0.0, 0.0, 0.0, 0.0, 2.220446049250313e-16, -1.0, 0.0, 0.0, 1.0,
        2.220446049250313e-16, 0.0, 0.0, 0.0, 0.0, 1.0
      ],
      "name": "Sketchfab_model"
    },
    {
      "children": [2],
      "name": "M-COC_iOS_HERO_Wade_Wilson_Deadpool_Classic.obj.cleaner.materialmerger.gles"
    },
    {
      "mesh": 0,
      "name": "Object_2"
    }
  ],
  "samplers": [
    {
      "magFilter": 9729,
      "minFilter": 9987,
      "wrapS": 10497,
      "wrapT": 10497
    }
  ],
  "scene": 0,
  "scenes": [
    {
      "name": "Sketchfab_Scene",
      "nodes": [0]
    }
  ],
  "textures": [
    {
      "sampler": 0,
      "source": 0
    }
  ]
}
